<svg width="254" height="145" viewBox="0 0 254 145" fill="none" xmlns="http://www.w3.org/2000/svg">
<path d="M173.815 28.9283C173.672 31.8701 172.794 34.5737 171.064 36.9655C169.586 39.0083 167.673 40.5645 165.445 41.734C164.478 42.2418 163.465 42.6335 162.401 42.9026C161.239 43.1966 160.062 43.3005 158.868 43.2609C158.646 43.2535 158.421 43.2476 158.2 43.2686C157.87 43.2997 157.643 43.4809 157.586 43.8161C157.533 44.1321 157.48 44.4532 157.479 44.7722C157.469 46.7306 157.411 48.6915 157.487 50.6468C157.641 54.5864 157.532 58.5257 157.558 62.4646C157.583 66.2333 157.568 70.0025 157.56 73.7712V75.3502C157.56 75.8161 157.183 76.1939 156.717 76.1939H97.4806C97.0128 76.1939 96.6339 75.815 96.6339 75.3473V74.0732C96.6326 73.6929 96.6326 73.3123 96.6339 72.9317V71.2397H96.6343C96.6337 63.6451 96.6269 56.05 96.6464 48.4552C96.6494 47.2693 96.7635 46.0822 96.7279 44.8939C96.7175 44.5498 96.6777 44.2028 96.6108 43.8652C96.5277 43.4449 96.3304 43.2783 95.8901 43.2567C95.4949 43.2372 95.0974 43.2571 94.7014 43.2702C92.8102 43.3323 91.0121 42.9415 89.2935 42.1628C87.72 41.4501 86.3315 40.4646 85.0756 39.2863C83.6715 37.9686 82.4946 36.4829 81.6678 34.7306C80.9414 33.1905 80.5157 31.5778 80.3648 29.8819C80.2968 29.1161 80.2388 28.3532 80.2725 27.5849C80.4166 24.2969 81.4428 21.3249 83.4752 18.7216C85.1152 16.621 87.2124 15.1268 89.6659 14.1172C91.0476 13.5484 92.4795 13.2038 93.9692 13.0347C97.14 12.6743 100.071 13.3747 102.816 14.9357C105.431 16.4231 107.384 18.5558 108.763 21.2156C109.429 22.4983 109.853 23.8701 110.135 25.286C110.198 25.6016 110.248 25.9199 110.318 26.2336C110.432 26.7414 110.616 26.8921 111.132 26.9203C111.256 26.927 111.38 26.9262 111.503 26.9251C111.789 26.9228 111.973 26.7685 112.055 26.5098C112.129 26.2749 112.176 26.0304 112.224 25.7878C112.54 24.1771 113.011 22.6207 113.744 21.1437C114.967 18.6778 116.776 16.7575 119.094 15.2996C120.856 14.1908 122.76 13.4407 124.819 13.1283C126.041 12.9431 127.269 12.8739 128.517 13.0205C129.678 13.1573 130.821 13.3245 131.932 13.693C133.501 14.2139 134.909 15.0299 136.215 16.0338C138.282 17.6232 139.838 19.6123 140.869 22.0079C141.369 23.1719 141.72 24.3839 141.982 25.6221C142.038 25.8884 142.074 26.1595 142.142 26.4226C142.233 26.7742 142.411 26.9116 142.78 26.9296C142.927 26.9368 143.078 26.9253 143.224 26.9035C143.464 26.8678 143.642 26.7228 143.719 26.5016C143.799 26.27 143.858 26.0241 143.879 25.7802C144.029 24.0473 144.582 22.4526 145.433 20.9398C146.28 19.4347 147.334 18.1027 148.584 16.9196C150.199 15.3923 152.101 14.3585 154.203 13.6809C155.986 13.1063 157.816 12.8294 159.692 12.942C160.558 12.9941 161.409 13.1626 162.249 13.3749C164.016 13.8217 165.671 14.5208 167.192 15.5398C168.996 16.7486 170.415 18.3135 171.541 20.1548C172.505 21.7315 173.191 23.4195 173.579 25.2318C173.841 26.4554 173.875 27.689 173.815 28.9283ZM96.6267 91.6945V81.7466C96.6267 81.279 97.0058 80.8999 97.4734 80.8999H156.736C157.204 80.8999 157.583 81.279 157.583 81.7466V91.6945C157.583 92.1621 157.204 92.5412 156.736 92.5412H97.4734C97.3265 92.5412 97.1906 92.5003 97.0702 92.4345C96.9997 92.4012 96.9396 92.3583 96.89 92.3058C96.7285 92.1517 96.6267 91.9354 96.6267 91.6945ZM178.43 24.9674C178.059 22.4854 177.211 20.1728 175.949 18.0121C174.765 15.982 173.256 14.2241 171.456 12.7085C168.259 10.0183 164.541 8.59522 160.422 8.19624C158.947 8.05315 157.456 8.0724 155.973 8.28598C154.52 8.49532 153.103 8.82425 151.736 9.35702C149.693 10.1537 147.777 11.1757 146.078 12.5796C145.081 13.4028 144.195 14.3373 143.318 15.2818C143.218 15.3885 143.118 15.4939 143.009 15.6092C142.677 15.5557 142.561 15.3582 142.42 15.187C141.344 13.878 140.126 12.7225 138.731 11.755C137.257 10.7318 135.664 9.93486 134.002 9.27552C132.24 8.57681 130.403 8.17084 128.516 8.04383C126.427 7.9035 124.364 8.10226 122.328 8.61322C118.189 9.65208 114.687 11.7088 111.967 15.0346C111.842 15.188 111.716 15.3429 111.576 15.482C111.334 15.7212 111.121 15.7187 110.865 15.4771C110.758 15.376 110.659 15.2615 110.575 15.1402C110.034 14.3581 109.347 13.722 108.621 13.1149C106.801 11.5926 104.815 10.3531 102.607 9.47703C100.846 8.77853 99.0179 8.32493 97.133 8.18883C95.3286 8.05844 93.525 8.1012 91.7296 8.43774C89.7901 8.8016 87.9372 9.41162 86.1837 10.2924C83.7381 11.5209 81.6831 13.2464 79.9362 15.3573C77.9893 17.7098 76.6697 20.3688 75.9206 23.3162C75.5972 24.5883 75.415 25.8831 75.2814 27.1929C75.1616 28.3681 75.248 29.5238 75.3862 30.6721C75.5938 32.3982 76.0946 34.0596 76.7531 35.6723C77.2603 36.9143 77.8352 38.1223 78.579 39.2391C80.0244 41.4095 81.8333 43.2241 83.9951 44.6869C85.9213 45.9904 87.9789 46.9932 90.2687 47.4765C90.4139 47.5072 90.5572 47.5468 90.7001 47.5872C91.3139 47.7612 91.5251 48.0088 91.566 48.6311C91.584 48.9027 91.5759 49.1762 91.5759 49.4488C91.5764 63.9759 91.5744 78.503 91.5816 93.0301C91.5816 93.0932 91.5831 93.1565 91.5838 93.2196H91.5791V94.7702C91.5791 96.2178 92.7526 97.3911 94.2002 97.3911H131.957C139.928 97.3911 147.898 97.3936 155.869 97.3928C155.891 97.3928 155.914 97.3913 155.936 97.3911H159.702C160.107 97.3911 160.489 97.2967 160.831 97.1328C161.335 96.9235 161.766 96.526 162.026 95.9793C162.211 95.6247 162.318 95.2234 162.322 94.7969C162.34 94.6176 162.349 94.4375 162.349 94.2544C162.336 91.4039 162.328 88.5531 162.328 85.7024C162.328 75.0674 162.332 64.4325 162.331 53.7975C162.331 52.6079 162.307 51.4184 162.303 50.2288C162.302 49.7582 162.314 49.2871 162.339 48.8172C162.363 48.3625 162.593 48.0124 162.978 47.787C163.165 47.6774 163.391 47.6242 163.605 47.5698C167.037 46.6982 170.062 45.1084 172.588 42.5872C173.965 41.2116 175.158 39.7126 176.118 38.0167C177.788 35.066 178.659 31.908 178.691 28.5169C178.702 27.3258 178.605 26.1445 178.43 24.9674Z" fill="#8BA98E"/>
<path d="M115.628 128.192C115.279 128.508 115.008 128.76 114.73 129.005C114.334 129.353 113.891 129.609 113.373 129.743C111.517 130.223 109.765 128.919 109.701 127.008C109.665 125.952 109.843 124.926 110.226 123.952C110.742 122.64 111.321 121.352 111.879 120.056C112.114 119.51 112.369 118.973 112.61 118.43C112.69 118.249 112.768 118.065 112.826 117.877C113.002 117.308 112.629 116.893 112.037 116.992C111.785 117.035 111.571 117.154 111.391 117.334C110.761 117.966 110.088 118.561 109.513 119.239C108.487 120.448 107.496 121.688 106.534 122.949C105.327 124.532 104.328 126.24 103.664 128.128C103.48 128.652 103.181 129.103 102.795 129.497C102.445 129.853 102.04 129.971 101.58 129.743C101.272 129.59 100.954 129.437 100.685 129.226C100.208 128.851 100.062 128.346 100.269 127.764C100.343 127.554 100.431 127.348 100.529 127.148C101.691 124.79 102.637 122.341 103.537 119.875C103.824 119.087 103.999 118.257 104.221 117.446C104.385 116.849 104.265 116.308 103.835 115.863C103.25 115.259 103.372 114.778 104.125 114.311C104.839 113.869 105.625 113.797 106.418 114.015C107.456 114.301 108.039 115.237 107.856 116.301C107.785 116.712 107.633 117.11 107.507 117.51C107.403 117.841 107.268 118.162 107.178 118.495C107.137 118.649 107.171 118.822 107.171 119.078C107.328 118.931 107.439 118.844 107.528 118.739C108.217 117.925 108.9 117.107 109.586 116.291C110.164 115.603 110.809 114.991 111.591 114.538C112.175 114.2 112.788 113.943 113.479 113.924C114.896 113.884 116.008 114.798 116.255 116.202C116.368 116.85 116.342 117.496 116.163 118.118C115.978 118.758 115.744 119.388 115.48 119.999C114.93 121.272 114.332 122.524 113.78 123.795C113.534 124.362 113.348 124.955 113.143 125.539C113.085 125.702 113.043 125.873 113.017 126.044C112.933 126.608 113.272 127.029 113.842 127.027C114.108 127.027 114.376 126.946 114.636 126.876C114.802 126.832 114.953 126.736 115.113 126.671C115.527 126.5 115.557 126.51 115.936 126.928C116.218 126.884 116.395 126.667 116.534 126.443C116.702 126.172 116.835 125.875 116.955 125.578C117.18 125.029 117.367 124.464 117.599 123.918C119.171 120.217 120.383 116.397 121.442 112.524C121.985 110.539 122.375 108.521 122.781 106.506C122.863 106.094 122.952 105.682 123.059 105.275C123.182 104.809 123.36 104.365 123.891 104.227C124.477 104.075 125.031 104.167 125.494 104.57C126.058 105.06 126.298 105.691 126.196 106.434C126.142 106.826 126.057 107.215 125.979 107.603C125.378 110.571 124.467 113.449 123.451 116.297C123.01 117.533 122.579 118.773 122.146 120.011C122.081 120.198 122.015 120.386 121.973 120.579C121.922 120.816 122.099 120.976 122.316 120.903C122.363 120.887 122.409 120.868 122.453 120.845C123.289 120.413 124.134 119.997 124.957 119.543C125.544 119.219 126.072 118.804 126.543 118.322C126.944 117.911 127.28 117.454 127.544 116.944C127.771 116.505 127.76 116.09 127.444 115.695C127.351 115.579 127.251 115.466 127.179 115.337C126.985 114.997 127.05 114.655 127.354 114.41C127.693 114.136 128.097 114.016 128.52 113.968C129.175 113.893 129.807 114.013 130.406 114.277C130.994 114.537 131.332 114.999 131.44 115.634C131.547 116.266 131.438 116.868 131.191 117.449C130.877 118.192 130.426 118.848 129.802 119.354C129.304 119.758 128.769 120.125 128.218 120.453C127.71 120.757 127.157 120.986 126.625 121.25C126.314 121.404 125.998 121.549 125.698 121.721C124.467 122.423 124.308 122.999 125.04 124.188C125.286 124.587 125.572 124.965 125.867 125.33C126.131 125.657 126.429 125.958 126.719 126.263C127.363 126.943 128.162 127.263 129.21 126.778C129.367 126.706 129.525 126.628 129.691 126.585C129.986 126.509 130.239 126.671 130.297 126.976C130.324 127.117 130.314 127.271 130.293 127.415C130.231 127.846 130.027 128.213 129.736 128.529C129.075 129.248 128.249 129.678 127.292 129.837C126.722 129.933 126.17 129.858 125.628 129.603C124.394 129.019 123.444 128.171 122.888 126.901C122.482 125.972 122.045 125.056 121.624 124.133C121.496 123.852 121.226 123.799 121.05 124.05C120.91 124.25 120.805 124.478 120.703 124.702C120.087 126.054 119.478 127.409 118.865 128.762C118.783 128.943 118.699 129.124 118.596 129.292C118.282 129.806 117.941 129.967 117.344 129.852C116.62 129.713 116.058 129.35 115.791 128.624C115.749 128.511 115.706 128.398 115.628 128.192Z" fill="#324A34"/>
<path d="M162.611 118.784C162.708 118.681 162.81 118.582 162.902 118.475C163.495 117.775 164.087 117.076 164.676 116.373C165.17 115.783 165.685 115.216 166.289 114.733C166.912 114.236 167.628 113.987 168.417 113.968C169.933 113.93 171.015 114.928 171.125 116.44C171.172 117.092 171.058 117.722 170.889 118.348C170.649 119.237 170.267 120.068 169.868 120.893C169.362 121.94 168.862 122.991 168.375 124.047C168.136 124.566 167.962 125.112 167.948 125.69C167.941 125.985 167.961 126.286 168.016 126.575C168.073 126.878 168.305 127.052 168.612 127.011C168.902 126.973 169.185 126.874 169.467 126.786C169.607 126.742 169.732 126.648 169.871 126.601C170.188 126.495 170.469 126.663 170.541 126.997C170.594 127.246 170.556 127.485 170.457 127.722C169.863 129.144 168.505 129.989 166.968 129.866C165.872 129.778 165.12 129.211 164.752 128.17C164.534 127.555 164.488 126.913 164.525 126.264C164.597 125.013 164.913 123.82 165.409 122.677C165.714 121.973 166.057 121.286 166.39 120.595C166.713 119.926 167.039 119.259 167.374 118.596C167.547 118.254 167.606 117.892 167.597 117.518C167.592 117.278 167.427 117.106 167.189 117.059C166.932 117.008 166.691 117.054 166.485 117.214C166.31 117.351 166.143 117.499 165.983 117.653C165.194 118.411 164.516 119.265 163.863 120.139C163.33 120.853 162.804 121.574 162.281 122.297C160.953 124.134 159.925 126.132 159.09 128.235C158.963 128.556 158.835 128.883 158.654 129.175C158.249 129.833 157.69 130.033 157.006 129.812C156.179 129.544 155.765 129.013 155.857 128.219C155.916 127.706 156.031 127.188 156.21 126.706C156.494 125.942 156.839 125.199 157.183 124.46C157.873 122.979 158.593 121.513 159.274 120.028C159.52 119.491 159.703 118.922 159.888 118.358C159.964 118.127 160.003 117.872 159.996 117.63C159.983 117.161 159.579 116.931 159.159 117.143C158.355 117.547 157.638 118.067 157.048 118.757C156.13 119.83 155.201 120.893 154.279 121.963C152.993 123.455 151.91 125.072 151.183 126.916C150.938 127.537 150.643 128.14 150.334 128.732C150.177 129.034 149.971 129.327 149.728 129.564C149.335 129.949 148.85 129.997 148.354 129.76C148.154 129.665 147.96 129.547 147.787 129.41C147.196 128.945 147.016 128.334 147.256 127.622C147.327 127.412 147.424 127.209 147.521 127.009C148.809 124.354 149.9 121.621 150.828 118.822C150.937 118.493 151.034 118.16 151.116 117.823C151.283 117.136 151.162 116.497 150.754 115.916C150.726 115.875 150.695 115.836 150.668 115.795C150.276 115.202 150.343 114.832 150.92 114.414C151.767 113.8 153.212 113.768 154.089 114.347C154.735 114.775 155.004 115.376 154.862 116.137C154.798 116.476 154.683 116.806 154.589 117.139C154.455 117.611 154.292 118.077 154.316 118.638C154.464 118.592 154.595 118.588 154.672 118.522C154.82 118.394 154.94 118.232 155.069 118.082C155.697 117.348 156.312 116.602 156.957 115.883C157.286 115.515 157.649 115.172 158.028 114.856C158.633 114.353 159.343 114.079 160.13 114.001C160.584 113.957 161.021 114.017 161.44 114.188C162.245 114.515 162.696 115.127 162.811 115.981C162.878 116.477 162.845 116.969 162.69 117.451C162.607 117.71 162.524 117.971 162.471 118.237C162.439 118.397 162.465 118.569 162.465 118.736L162.611 118.784Z" fill="#324A34"/>
<path d="M37.8622 109.829C37.899 110.394 37.7615 110.926 37.5034 111.41C37.2251 111.932 36.9097 112.44 36.559 112.917C35.8806 113.84 35.0678 114.644 34.1788 115.362C33.3311 116.046 32.4545 116.696 31.5753 117.339C30.7159 117.969 29.8305 118.562 28.9692 119.189C28.2752 119.695 28.2528 119.852 28.8105 120.476C29.7221 121.495 30.5032 122.61 31.2675 123.739C31.7812 124.498 32.2971 125.256 32.8351 125.998C33.0813 126.337 33.3598 126.661 33.6642 126.948C34.2823 127.532 35.007 127.77 35.8518 127.507C35.9932 127.463 36.1382 127.423 36.2847 127.404C36.4872 127.378 36.6938 127.555 36.6693 127.76C36.6466 127.949 36.5918 128.149 36.4951 128.311C36.1941 128.813 35.7544 129.175 35.2246 129.417C33.8636 130.037 32.5286 129.969 31.2411 129.213C30.5271 128.794 29.9258 128.231 29.4527 127.556C28.9557 126.848 28.4951 126.112 28.0527 125.368C27.5976 124.602 27.1987 123.802 26.7463 123.034C26.4326 122.502 26.0741 121.995 25.7274 121.482C25.631 121.34 25.518 121.203 25.391 121.088C25.0644 120.792 24.6684 120.865 24.4713 121.253C24.4042 121.385 24.3606 121.529 24.3058 121.667C23.8302 122.864 23.3114 124.042 22.6817 125.168C22.1483 126.122 21.5387 127.024 20.8264 127.854C20.4213 128.327 19.9819 128.764 19.4529 129.097C18.8791 129.459 18.2642 129.705 17.5706 129.706C17.2038 129.707 16.8899 129.588 16.6428 129.314C16.344 128.982 16.3239 128.595 16.5878 128.232C16.6602 128.132 16.7432 128.037 16.8323 127.953C18.3334 126.522 19.3414 124.768 20.1237 122.876C21.1651 120.358 22.0698 117.79 22.8199 115.169C23.3863 113.19 23.7851 111.175 24.0899 109.141C24.1009 109.068 24.114 108.994 24.1119 108.921C24.1051 108.692 23.8861 108.493 23.6625 108.538C23.4964 108.572 23.3336 108.64 23.1806 108.716C22.8034 108.903 22.444 109.129 22.0575 109.293C21.1012 109.697 20.1046 109.098 19.9732 108.068C19.9177 107.633 20.0566 107.289 20.4048 107.028C20.4444 106.998 20.4833 106.965 20.5271 106.944C22.1813 106.132 23.884 105.733 25.6918 106.388C26.7393 106.768 27.3671 107.508 27.4808 108.635C27.5126 108.953 27.5214 109.279 27.4927 109.597C27.3652 111.006 27.11 112.396 26.7588 113.764C26.4024 115.153 25.993 116.53 25.608 117.912C25.5682 118.055 25.5212 118.198 25.5047 118.343C25.481 118.552 25.5371 118.741 25.7428 118.844C25.9134 118.93 26.0853 118.902 26.2345 118.795C26.3547 118.71 26.4568 118.599 26.5689 118.502C26.8676 118.243 27.1595 117.975 27.4683 117.728C28.3196 117.048 29.1938 116.394 30.0308 115.696C31.3549 114.592 32.4653 113.299 33.3289 111.802C33.714 111.134 34.0289 110.442 34.1629 109.67C34.281 108.991 34.2139 108.339 34.0075 107.692C33.9551 107.527 33.8833 107.368 33.8363 107.202C33.7025 106.728 33.8308 106.436 34.292 106.249C35.3338 105.828 36.3039 106.057 36.9688 106.889C37.2353 107.223 37.4255 107.598 37.5445 108.005C37.6347 108.313 37.7022 108.629 37.7572 108.945C37.8078 109.237 37.8283 109.534 37.8622 109.829Z" fill="#324A34"/>
<path d="M75.102 119.509C75.3624 119.212 75.628 118.918 75.8824 118.616C76.6954 117.648 77.4911 116.666 78.321 115.713C78.6601 115.324 79.0418 114.959 79.4533 114.648C80.1905 114.091 81.0424 113.862 81.9695 113.931C83.1555 114.019 84.0576 114.826 84.2854 115.99C84.4219 116.689 84.3159 117.372 84.1732 118.052C83.9943 118.905 83.6595 119.705 83.2923 120.491C82.9047 121.321 82.4894 122.14 82.1404 122.986C81.8292 123.739 81.5875 124.522 81.325 125.294C81.2537 125.505 81.2023 125.725 81.1701 125.944C81.0611 126.686 81.5356 127.141 82.2779 127.001C82.4947 126.96 82.7032 126.871 82.911 126.792C83.0262 126.749 83.1282 126.672 83.2425 126.626C83.5697 126.495 83.8504 126.632 83.9152 126.978C83.9457 127.142 83.9327 127.325 83.8925 127.488C83.5308 128.952 81.4325 130.166 80.0182 129.801C78.5916 129.433 77.9644 128.548 77.7921 127.414C77.6668 126.589 77.78 125.784 77.9491 124.982C78.1653 123.958 78.5583 122.995 78.9869 122.047C79.5275 120.851 80.0781 119.66 80.6208 118.465C80.723 118.241 80.8257 118.013 80.8981 117.777C81.024 117.369 80.7747 117.013 80.3509 117.018C80.1623 117.02 79.9691 117.098 79.7887 117.169C79.6774 117.213 79.5824 117.304 79.4875 117.383C79.3163 117.526 79.1398 117.665 78.9838 117.823C76.1843 120.665 73.7251 123.752 72.1063 127.439C71.9768 127.734 71.8836 128.046 71.7312 128.328C71.5204 128.718 71.2965 129.108 71.0281 129.459C70.726 129.854 70.2921 129.967 69.8296 129.771C69.4909 129.627 69.151 129.458 68.8604 129.236C68.3573 128.852 68.2489 128.387 68.4551 127.781C68.5107 127.618 68.5795 127.458 68.6557 127.302C70.8791 122.774 72.5216 118.033 73.854 113.176C74.3193 111.481 74.7864 109.786 75.0999 108.055C75.2364 107.3 75.3368 106.538 75.4676 105.781C75.5177 105.49 75.577 105.195 75.6837 104.921C75.8956 104.377 76.3193 104.105 76.9033 104.133C78.4474 104.209 79.0005 105.262 78.8443 106.389C78.6434 107.837 78.3265 109.263 77.9362 110.673C77.2081 113.301 76.2425 115.846 75.2434 118.38C75.1177 118.699 75.0375 119.036 74.9363 119.365C74.9409 119.447 74.9454 119.529 74.95 119.61C75.0006 119.577 75.0514 119.543 75.102 119.509Z" fill="#324A34"/>
<path d="M184.869 118.651C184.843 117.956 184.809 117.386 184.527 116.87C184.202 116.278 183.62 116.08 183.014 116.374C182.795 116.481 182.593 116.635 182.407 116.795C181.241 117.803 180.199 118.923 179.332 120.202C178.261 121.783 177.573 123.516 177.278 125.402C177.233 125.693 177.214 125.997 177.244 126.289C177.346 127.277 178.248 128.165 179.512 127.674C179.65 127.621 179.783 127.555 179.916 127.49C180.753 127.079 181.425 126.459 182.046 125.782C183.316 124.399 184.077 122.752 184.512 120.943C184.703 120.15 184.868 119.35 184.869 118.651ZM179.475 117.103C179.897 116.61 180.28 116.157 180.67 115.709C181.464 114.796 182.466 114.251 183.648 114.016C185.503 113.648 187.075 114.477 187.794 116.218C188.071 116.89 188.193 117.594 188.229 118.317C188.317 120.087 187.965 121.77 187.199 123.361C185.919 126.02 183.954 128.015 181.305 129.326C180.995 129.479 180.67 129.603 180.348 129.73C179.158 130.2 178.067 129.997 177.06 129.236C176.883 129.102 176.708 128.961 176.516 128.852C176.322 128.742 176.109 128.811 176.012 129.01C175.926 129.186 175.857 129.375 175.811 129.565C175.381 131.349 174.753 133.072 174.201 134.818C173.946 135.622 173.616 136.397 173.188 137.127C172.914 137.594 172.533 137.926 172.001 138.074C170.833 138.401 169.942 137.589 170.185 136.409C170.224 136.216 170.282 136.023 170.361 135.844C171.58 133.071 172.495 130.195 173.278 127.275C174.072 124.309 174.856 121.342 175.636 118.373C175.717 118.063 175.761 117.74 175.786 117.421C175.835 116.801 175.692 116.219 175.229 115.787C174.636 115.235 174.918 114.826 175.36 114.507C176.272 113.849 177.283 113.73 178.313 114.17C178.984 114.457 179.335 115.02 179.304 115.77C179.293 116.04 179.228 116.307 179.191 116.576C179.163 116.783 179.194 116.964 179.475 117.103Z" fill="#324A34"/>
<path d="M213.315 118.934C213.984 118.138 214.659 117.348 215.32 116.545C215.778 115.988 216.258 115.456 216.836 115.02C217.432 114.57 218.069 114.193 218.805 114.012C220.382 113.625 222.066 114.66 222.387 116.219C222.473 116.636 222.482 117.061 222.361 117.471C222.174 118.111 221.998 118.759 221.745 119.374C221.339 120.357 220.892 121.324 220.428 122.281C219.888 123.4 219.523 124.583 219.077 125.737C219.016 125.896 218.992 126.075 218.985 126.246C218.965 126.709 219.233 127.029 219.693 127.01C220.082 126.994 220.467 126.883 220.852 126.8C220.945 126.78 221.027 126.71 221.113 126.659C221.555 126.396 221.924 126.822 221.909 127.196C221.907 127.27 221.891 127.344 221.871 127.415C221.444 129 219.604 130.173 218.002 129.841C217.137 129.662 216.472 129.155 216.041 128.375C215.616 127.606 215.518 126.781 215.684 125.926C215.934 124.633 216.357 123.392 216.885 122.188C217.243 121.372 217.645 120.576 218.012 119.764C218.237 119.269 218.436 118.762 218.638 118.258C218.693 118.121 218.73 117.974 218.749 117.828C218.811 117.34 218.509 117.018 218.018 117.031C217.756 117.038 217.537 117.147 217.354 117.322C217.121 117.545 216.888 117.768 216.677 118.011C215.455 119.411 214.225 120.804 213.029 122.225C212.067 123.368 211.352 124.674 210.677 126.001C210.206 126.928 209.748 127.861 209.274 128.786C209.139 129.05 208.983 129.304 208.813 129.547C208.59 129.866 208.267 129.968 207.896 129.87C207.361 129.728 206.875 129.481 206.485 129.084C206.149 128.742 206.023 128.327 206.188 127.856C206.262 127.647 206.343 127.438 206.443 127.24C207.625 124.919 208.535 122.483 209.444 120.05C209.745 119.242 209.916 118.385 210.135 117.548C210.297 116.932 210.167 116.371 209.774 115.87C209.698 115.773 209.614 115.678 209.557 115.57C209.406 115.28 209.405 114.978 209.641 114.745C209.848 114.539 210.087 114.344 210.348 114.22C211.07 113.878 211.829 113.84 212.59 114.092C213.421 114.367 213.882 115.019 213.835 115.896C213.815 116.263 213.726 116.629 213.636 116.988C213.487 117.587 213.311 118.181 213.146 118.776C213.087 118.879 213.026 118.989 213.165 119.068C213.184 119.079 213.264 118.982 213.315 118.934Z" fill="#324A34"/>
<path d="M193.723 125.504C193.723 125.752 193.72 125.999 193.724 126.247C193.739 127.178 194.71 127.722 195.545 127.205C195.817 127.037 196.071 126.833 196.31 126.62C196.999 126.005 197.54 125.266 198.059 124.508C199.389 122.566 200.241 120.408 200.95 118.183C201.016 117.975 201.04 117.747 201.051 117.527C201.082 116.95 200.805 116.535 200.331 116.234C199.927 115.979 199.489 115.957 199.042 116.068C198.605 116.176 198.212 116.383 197.851 116.655C196.704 117.518 195.788 118.579 195.138 119.859C194.237 121.631 193.832 123.532 193.723 125.504ZM198.763 126.725C198.572 126.906 198.412 127.051 198.259 127.203C197.766 127.69 197.283 128.188 196.779 128.664C196.528 128.901 196.255 129.121 195.966 129.31C194.72 130.124 193.441 130.132 192.193 129.346C191.052 128.628 190.446 127.546 190.317 126.211C190.094 123.899 190.586 121.725 191.679 119.691C192.922 117.379 194.683 115.586 197.083 114.464C197.737 114.159 198.415 113.939 199.15 113.919C199.98 113.895 200.709 114.141 201.348 114.666C201.463 114.76 201.569 114.865 201.688 114.953C202.143 115.292 202.415 115.266 202.775 114.852C202.856 114.759 202.922 114.653 202.999 114.557C203.452 113.991 204.036 113.813 204.722 114.012C205.004 114.094 205.281 114.217 205.537 114.361C205.931 114.581 206.062 114.943 205.956 115.376C205.903 115.59 205.817 115.798 205.725 115.999C205.12 117.328 204.485 118.644 203.906 119.984C203.435 121.073 203.019 122.187 202.594 123.295C202.298 124.069 202.196 124.877 202.229 125.703C202.234 125.827 202.231 125.952 202.25 126.074C202.353 126.712 202.698 126.986 203.337 126.893C203.6 126.854 203.861 126.751 204.106 126.64C204.803 126.328 205.126 126.77 205.052 127.361C205.025 127.574 204.944 127.798 204.831 127.982C204.423 128.646 203.887 129.187 203.203 129.576C201.947 130.289 200.104 130.002 199.363 128.383C199.2 128.025 199.084 127.645 198.949 127.273C198.89 127.112 198.839 126.949 198.763 126.725Z" fill="#324A34"/>
<path d="M46.8238 124.374C46.6344 124.596 46.4754 124.783 46.3163 124.97C45.5928 125.818 44.8926 126.689 44.1369 127.508C43.6689 128.015 43.1372 128.47 42.5958 128.9C42.0484 129.335 41.4086 129.61 40.7234 129.772C39.3103 130.105 38.0141 129.301 37.6695 127.882C37.4703 127.062 37.5632 126.252 37.781 125.458C37.9442 124.863 38.1506 124.276 38.3891 123.706C38.858 122.587 39.3774 121.49 39.8477 120.372C40.2118 119.505 40.539 118.623 40.8699 117.742C40.9562 117.512 41.0089 117.267 41.0532 117.024C41.1289 116.607 41.0121 116.239 40.7221 115.929C40.6546 115.857 40.5782 115.793 40.5045 115.727C40.1866 115.44 40.1422 115.161 40.4391 114.742C40.6317 114.471 40.9029 114.298 41.2077 114.179C41.9216 113.898 42.6517 113.844 43.3931 114.049C44.4121 114.33 44.9402 115.138 44.7688 116.189C44.6972 116.627 44.5776 117.059 44.458 117.488C44.011 119.092 43.3589 120.617 42.683 122.133C42.2495 123.106 41.8075 124.075 41.3876 125.053C41.2322 125.415 41.0934 125.792 41.0098 126.176C40.8887 126.731 41.3245 127.103 41.8573 126.909C42.0836 126.827 42.3096 126.694 42.4842 126.529C43.114 125.934 43.7587 125.348 44.3304 124.7C45.7953 123.039 46.9968 121.19 48.0801 119.263C48.7477 118.076 49.393 116.875 50.0653 115.691C50.2846 115.304 50.5246 114.921 50.8114 114.584C51.5269 113.744 52.7331 113.724 53.5049 114.505C53.7572 114.76 53.8194 115.067 53.7326 115.396C53.67 115.634 53.5696 115.863 53.4666 116.088C52.8987 117.326 52.3208 118.559 51.7538 119.798C51.1452 121.127 50.5663 122.469 50.1572 123.875C50.0124 124.372 49.8958 124.882 49.8232 125.395C49.7791 125.706 49.8066 126.04 49.8693 126.35C49.9688 126.843 50.2986 127.065 50.7941 126.983C51.0826 126.936 51.3641 126.825 51.638 126.715C51.8329 126.637 52.0114 126.571 52.1889 126.729C52.3691 126.89 52.4438 127.097 52.3932 127.333C52.3151 127.698 52.1955 128.05 51.9707 128.355C51.3342 129.219 50.4747 129.719 49.4176 129.854C47.8614 130.053 46.8276 128.949 46.6278 127.676C46.5148 126.955 46.5789 126.243 46.8304 125.552C46.8897 125.389 46.9593 125.229 47.0044 125.062C47.0639 124.842 47.0662 124.625 46.8238 124.374Z" fill="#324A34"/>
<path d="M135.583 125.586C135.595 125.846 135.581 126.049 135.618 126.241C135.684 126.578 135.742 126.927 135.876 127.24C136.145 127.875 136.655 128.103 137.321 127.95C137.766 127.847 138.143 127.623 138.489 127.333C139.37 126.592 140.084 125.714 140.647 124.712C141.463 123.258 142.031 121.706 142.418 120.089C142.538 119.586 142.599 119.067 142.658 118.552C142.723 117.982 142.661 117.411 142.537 116.856C142.331 115.937 141.543 115.531 140.664 115.871C140.459 115.95 140.255 116.056 140.083 116.19C139.792 116.418 139.503 116.656 139.256 116.93C137.725 118.632 136.658 120.593 136.058 122.802C135.805 123.733 135.622 124.679 135.583 125.586ZM132.253 124.808C132.315 122.898 132.726 121.081 133.619 119.383C134.625 117.471 136.086 115.983 137.929 114.882C139.384 114.013 140.962 113.706 142.641 114.071C143.88 114.339 144.785 115.051 145.372 116.167C145.709 116.809 145.878 117.503 145.995 118.216C146.163 119.236 146.058 120.236 145.839 121.235C145.328 123.563 144.315 125.618 142.576 127.282C141.674 128.146 140.657 128.845 139.527 129.371C138.013 130.076 136.472 130.109 134.918 129.488C133.335 128.854 132.513 127.652 132.313 125.993C132.266 125.601 132.272 125.203 132.253 124.808Z" fill="#324A34"/>
<path d="M234.484 117.423C234.477 117.306 234.479 117.181 234.462 117.059C234.366 116.359 233.967 116.008 233.259 116.024C233.065 116.028 232.859 116.06 232.684 116.137C232.416 116.255 232.152 116.399 231.918 116.575C231.116 117.177 230.508 117.95 230.006 118.813C229.471 119.736 229.094 120.728 228.73 121.725C228.688 121.84 228.665 121.964 228.648 122.085C228.62 122.283 228.738 122.449 228.927 122.441C229.197 122.429 229.473 122.413 229.732 122.344C231.48 121.879 232.807 120.811 233.856 119.378C234.273 118.808 234.443 118.134 234.484 117.423ZM224.605 124.822C224.599 123.659 224.735 122.68 225.049 121.731C225.865 119.263 227.285 117.215 229.34 115.619C230.328 114.852 231.416 114.267 232.655 114.015C233.469 113.849 234.285 113.858 235.081 114.11C236.37 114.517 237.186 115.386 237.47 116.711C237.814 118.317 237.453 119.762 236.369 121.004C235.122 122.433 233.549 123.335 231.705 123.735C230.764 123.939 229.801 124.042 228.848 124.19C228.75 124.205 228.648 124.202 228.554 124.229C228.294 124.304 228.135 124.472 228.091 124.749C227.863 126.192 229.01 127.49 230.462 127.414C231.16 127.378 231.834 127.221 232.468 126.917C233.185 126.574 233.888 126.21 234.467 125.649C234.537 125.58 234.617 125.518 234.701 125.468C234.94 125.324 235.18 125.351 235.377 125.551C235.796 125.976 235.914 126.486 235.766 127.058C235.624 127.604 235.322 128.058 234.874 128.393C234.579 128.614 234.259 128.815 233.924 128.966C232.927 129.414 231.895 129.75 230.807 129.915C230.083 130.024 229.368 130.002 228.669 129.82C227.75 129.582 226.904 129.168 226.15 128.585C225.277 127.91 224.836 126.99 224.692 125.918C224.637 125.501 224.625 125.078 224.605 124.822Z" fill="#324A34"/>
<path d="M90.7253 122.363C90.8826 122.386 91.0246 122.428 91.165 122.424C91.7441 122.405 92.2889 122.236 92.8001 121.977C93.8256 121.458 94.7352 120.779 95.5067 119.923C95.9097 119.477 96.212 118.965 96.3925 118.391C96.55 117.891 96.6395 117.383 96.506 116.856C96.3699 116.319 96.0831 116.063 95.5266 116.004C95.0292 115.952 94.6031 116.123 94.2083 116.404C93.4307 116.958 92.8039 117.652 92.2944 118.455C91.5724 119.593 91.093 120.838 90.6997 122.119C90.6868 122.162 90.7084 122.215 90.7253 122.363ZM91.876 129.873C91.3851 129.89 90.7717 129.821 90.174 129.64C88.0691 129.004 86.6973 127.225 86.6626 124.842C86.6474 123.796 86.8667 122.774 87.1535 121.772C87.8812 119.228 89.3381 117.185 91.4641 115.625C92.0406 115.202 92.6519 114.813 93.2869 114.486C94.4515 113.885 95.6951 113.755 96.9691 114.073C98.8066 114.531 99.8272 116.152 99.6615 117.993C99.5245 119.516 98.8538 120.8 97.6676 121.767C96.3009 122.881 94.7294 123.591 92.9895 123.899C92.479 123.989 91.957 124.014 91.441 124.075C91.1709 124.107 90.8987 124.136 90.6348 124.197C90.3685 124.259 90.2137 124.452 90.1818 124.725C90.0419 125.917 90.5658 127.224 92.1249 127.376C92.856 127.447 93.5541 127.324 94.2377 127.08C94.9451 126.827 95.57 126.43 96.162 125.976C96.339 125.841 96.5068 125.69 96.6967 125.576C97.1486 125.304 97.6659 125.521 97.7954 126.037C97.8945 126.432 97.8403 126.827 97.7277 127.211C97.5609 127.779 97.2377 128.256 96.7269 128.549C95.404 129.309 93.9926 129.815 92.453 129.9C92.3056 129.909 92.1564 129.887 91.876 129.873Z" fill="#324A34"/>
<path d="M54.8275 124.753C55.0362 121.094 56.4311 118.056 59.3165 115.784C60.7512 114.655 62.4037 114.015 64.2354 113.886C65.2997 113.812 66.2395 114.121 67.0322 114.853C67.5613 115.341 67.9106 115.938 68.0215 116.641C68.2927 118.361 67.8386 119.879 66.6719 121.177C66.5729 121.287 66.4603 121.387 66.3457 121.481C65.5956 122.096 64.6494 122.112 63.8838 121.524C63.3369 121.104 63.2169 120.458 63.5964 119.88C63.7175 119.696 63.8889 119.545 64.0284 119.372C64.2922 119.045 64.5752 118.729 64.8033 118.379C65.1445 117.855 65.1945 117.264 65.0734 116.66C64.9938 116.264 64.7561 116.057 64.3573 116.028C63.8756 115.993 63.4245 116.128 62.9893 116.317C62.3618 116.589 61.8641 117.034 61.4154 117.537C60.0516 119.066 59.1417 120.832 58.6847 122.828C58.5742 123.311 58.48 123.8 58.4303 124.291C58.3905 124.682 58.378 125.09 58.4436 125.474C58.6762 126.835 59.6878 127.573 61.0589 127.419C61.9124 127.322 62.6992 127.035 63.3905 126.522C63.7077 126.287 63.9965 126.013 64.2941 125.751C64.424 125.637 64.5349 125.5 64.67 125.392C65.142 125.017 65.7539 125.267 65.8354 125.867C65.8767 126.17 65.8026 126.454 65.683 126.734C65.2552 127.733 64.5451 128.477 63.5814 128.954C63.0071 129.238 62.3952 129.45 61.7913 129.67C61.2054 129.884 60.6083 130.01 59.9716 129.883C59.5123 129.792 59.0314 129.804 58.5759 129.701C56.5674 129.246 55.2055 127.737 54.9244 125.686C54.8806 125.368 54.8575 125.047 54.8275 124.753Z" fill="#324A34"/>
<path d="M55.5618 108.842C55.5396 108.939 55.5053 109.211 55.4132 109.461C55.1393 110.207 54.641 110.775 53.9476 111.16C53.3143 111.513 52.6789 111.511 52.0532 111.127C51.2247 110.619 50.6274 109.47 51.0175 108.209C51.2133 107.577 51.6593 107.164 52.2803 106.953C52.9558 106.724 53.6409 106.734 54.3174 106.949C55.1334 107.208 55.5618 107.811 55.5618 108.842Z" fill="#324A34"/>
<path d="M46.3613 106.764C46.7004 106.824 47.0484 106.854 47.3769 106.95C48.0642 107.151 48.4462 107.638 48.5394 108.342C48.6985 109.545 47.8123 110.941 46.6574 111.325C46.1571 111.491 45.6728 111.437 45.2293 111.168C44.3054 110.606 43.8306 109.789 43.9159 108.69C43.9697 107.996 44.3215 107.478 44.9269 107.144C45.368 106.9 45.8478 106.787 46.3613 106.764Z" fill="#324A34"/>
<path d="M123.986 53.5838C124.304 53.605 124.509 53.4494 124.71 53.318C125.144 53.0331 125.574 52.7382 125.983 52.4174C127.23 51.4373 128.467 50.4438 129.706 49.4542C131.452 48.0604 133.142 46.6016 134.615 44.9163C135.298 44.134 135.952 43.318 136.547 42.4669C137.614 40.9406 138.269 39.2428 138.492 37.3825C138.61 36.3969 138.509 35.4574 138.057 34.5628C137.946 34.344 137.845 34.1107 137.795 33.8726C137.685 33.3504 137.837 33.0073 138.303 32.7506C138.948 32.3952 139.649 32.2523 140.384 32.3319C142.633 32.5755 143.963 34.4157 144.215 36.0371C144.446 37.5228 144.189 38.9492 143.668 40.338C143.266 41.4132 142.677 42.3875 141.995 43.3068C141.09 44.5264 140.044 45.6154 138.907 46.6198C137.624 47.7537 136.248 48.7701 134.864 49.7743C133.118 51.0402 131.371 52.3043 129.627 53.5724C129.427 53.7176 129.228 53.869 129.053 54.0423C128.821 54.2724 128.819 54.5169 129.021 54.7713C129.097 54.8678 129.186 54.9552 129.276 55.041C130.48 56.1979 131.492 57.5128 132.431 58.8861C133.158 59.9497 133.863 61.0288 134.585 62.0967C135.334 63.2068 136.12 64.2912 137.029 65.2776C137.364 65.64 137.723 65.9924 138.119 66.2819C139.046 66.9578 140.062 67.1081 141.142 66.6625C141.302 66.5965 141.461 66.5218 141.627 66.4765C142.027 66.3672 142.313 66.5912 142.309 67.0158C142.306 67.5047 142.137 67.9503 141.826 68.3148C141.571 68.6128 141.282 68.9005 140.958 69.117C138.852 70.5223 136.63 70.703 134.317 69.6754C133.188 69.1731 132.256 68.4024 131.451 67.4736C130.635 66.5342 129.935 65.5121 129.317 64.4358C128.713 63.3832 128.144 62.3102 127.55 61.2521C127.028 60.3233 126.506 59.3945 125.958 58.4814C125.434 57.6072 124.817 56.7997 124.076 56.0936C123.882 55.9084 123.702 55.6952 123.395 55.6626C123.088 55.7896 123.011 56.0934 122.896 56.3594C122.531 57.2002 122.183 58.0477 121.82 58.8888C121.063 60.6417 120.237 62.3595 119.239 63.9904C118.5 65.1982 117.684 66.3501 116.729 67.3979C115.783 68.4352 114.708 69.2999 113.388 69.8206C113.066 69.9474 112.736 70.0678 112.399 70.1355C111.423 70.3307 110.651 69.9637 110.047 69.2055C109.725 68.8004 109.732 68.2244 110.15 67.8684C110.207 67.8201 110.256 67.7638 110.311 67.7139C111.969 66.2176 113.246 64.4305 114.309 62.4806C115.045 61.1304 115.656 59.722 116.25 58.3053C118.547 52.8314 120.301 47.1879 121.548 41.3859C121.844 40.0056 122.116 38.619 122.221 37.2068C122.236 37.0099 122.251 36.8101 122.233 36.6145C122.204 36.2907 121.994 36.1313 121.666 36.1918C121.424 36.2363 121.18 36.3011 120.955 36.3984C120.501 36.5944 120.057 36.8139 119.614 37.0341C119.37 37.1549 119.143 37.3107 118.897 37.4254C118.191 37.7537 117.498 37.7038 116.84 37.294C116.295 36.9547 115.92 36.4642 115.691 35.8716C115.425 35.1799 115.59 34.5404 116.152 34.0578C116.338 33.8984 116.551 33.7606 116.772 33.6533C118.115 32.9986 119.505 32.4953 121.009 32.348C122.668 32.1856 124.209 32.5349 125.647 33.3648C126.995 34.1433 127.587 35.3598 127.661 36.873C127.7 37.6705 127.6 38.4577 127.475 39.2409C126.828 43.3089 125.822 47.2921 124.622 51.2288C124.441 51.8209 124.258 52.4125 124.088 53.0075C124.035 53.1916 124.02 53.3864 123.986 53.5838Z" fill="#324A34"/>
</svg>
